<?xml version="1.0" encoding="utf-8"?>
<!-- Generator: Adobe Illustrator 26.0.2, SVG Export Plug-In . SVG Version: 6.00 Build 0)  -->
<svg version="1.1" id="Layer_1" xmlns="http://www.w3.org/2000/svg" xmlns:xlink="http://www.w3.org/1999/xlink" x="0px" y="0px"
	 viewBox="0 0 696 197.78" style="enable-background:new 0 0 696 197.78;" xml:space="preserve">
<style type="text/css">
	.st0{enable-background:new    ;}
	.st1{fill:#B93641;}
	.st2{fill:#5B4A29;}
	.st3{fill:#BA3742;}
	.st4{fill:#FFFFFF;}
	.st5{display:none;}
</style>
<g id="Layer_5">
	<g id="Layer_7">
	</g>
	<g id="Layer_6">
	</g>
</g>
<g id="Layer_1_00000157291835992703484580000001394891236876606858_">
	<g class="st0">
		<path class="st1" d="M54.44,36c2.94,0,3.88,2.14,3.88,3.74v89.86h-9.63V88.81c-0.13-1.2-1.07-2.14-2.27-2.14H35.99v42.92h-9.63
			V39.74c0-1.6,0.94-3.74,3.88-3.74h5.75v37.84c0,2.67,1.07,3.34,3.34,3.34h9.36V36H54.44z"/>
		<path class="st1" d="M90.01,36c2.81,0,3.88,2.14,3.88,3.74v89.86h-6.82c-2.27,0-2.67-1.34-2.81-2.01V36H90.01z"/>
		<path class="st1" d="M131.86,89.75c0,1.6-1.34,2.94-2.94,2.94h-14.44v-3.61c0-1.47,1.34-2.81,2.94-2.81h14.44V89.75z"/>
		<path class="st1" d="M179.59,42.95c-0.53,1.2-2,2.54-5.08,2.54h-7.49c-1.34,0-2.27,1.07-2.41,2.27v81.83h-6.82
			c-2.27,0-2.67-1.34-2.67-2.01v-82.1h-13.5v-6.55c0-1.6,1.34-2.94,2.94-2.94h38.24L179.59,42.95z"/>
		<path class="st1" d="M229.6,120.1c-1.07,2.41-2.67,6.15-3.08,6.95c-0.67,1.2-2.14,2.54-5.21,2.54h-21.39V38.67
			c0.13-1.47,1.34-2.67,2.94-2.67h25l-3.21,6.95c-0.53,1.2-2,2.67-5.08,2.67h-7.75c-1.34,0-2.27,0.94-2.27,2.27v27.81h14.44
			c-1.07,2.41-2.67,6.29-3.08,7.09c-0.67,1.2-2.01,2.54-5.08,2.54h-4.01c-1.2,0-2.27,1.07-2.27,2.27v32.49H229.6z"/>
		<path class="st1" d="M280.54,129.59h-10.56l-8.42-64.45l-8.42,64.45h-10.56L256.74,36h5.21c4.01,0,4.68,2.54,5.08,5.08
			L280.54,129.59z"/>
		<path class="st1" d="M378.01,36c2.94,0,3.88,2.14,3.88,3.74v89.86h-9.63V88.81c-0.13-1.2-1.07-2.14-2.27-2.14h-10.43v42.92h-9.63
			V39.74c0-1.6,0.94-3.74,3.88-3.74h5.75v37.84c0,2.67,1.07,3.34,3.34,3.34h9.36V36H378.01z"/>
		<path class="st1" d="M438.18,120.1c-1.07,2.41-2.67,6.15-3.08,6.95c-0.67,1.2-2.14,2.54-5.21,2.54H408.5V38.67
			c0.13-1.47,1.34-2.67,2.94-2.67h25l-3.21,6.95c-0.53,1.2-2,2.67-5.08,2.67h-7.75c-1.34,0-2.27,0.94-2.27,2.27v27.81h14.44
			c-1.07,2.41-2.67,6.29-3.08,7.09c-0.67,1.2-2.01,2.54-5.08,2.54h-4.01c-1.2,0-2.27,1.07-2.27,2.27v32.49H438.18z"/>
		<path class="st1" d="M489.12,129.59h-10.56l-8.42-64.45l-8.42,64.45h-10.56L465.32,36h5.21c4.01,0,4.68,2.54,5.08,5.08
			L489.12,129.59z"/>
		<path class="st1" d="M540.33,120.1c-1.07,2.41-2.67,6.15-3.08,6.95c-0.67,1.2-2.14,2.54-5.21,2.54h-23V36h6.69
			c1.6,0.13,2.94,1.34,2.94,2.94v81.16H540.33z"/>
		<path class="st1" d="M583.38,42.95c-0.53,1.2-2,2.54-5.08,2.54h-7.49c-1.34,0-2.27,1.07-2.41,2.27v81.83h-6.82
			c-2.27,0-2.67-1.34-2.67-2.01v-82.1h-13.5v-6.55c0-1.6,1.34-2.94,2.94-2.94h38.24L583.38,42.95z"/>
		<path class="st1" d="M626.7,36c2.94,0,3.88,2.14,3.88,3.74v89.86h-9.63V88.81c-0.13-1.2-1.07-2.14-2.27-2.14h-10.43v42.92h-9.63
			V39.74c0-1.6,0.94-3.74,3.88-3.74h5.75v37.84c0,2.67,1.07,3.34,3.34,3.34h9.36V36H626.7z"/>
		<path class="st1" d="M669.49,90.68v38.91h-6.82c-1.47,0-2.67-1.2-2.81-2.81v-36.1L648.36,36h7.09c0.27,0,2.67,0.13,3.08,3.21
			l6.15,35.43l6.15-35.43c0.4-3.08,2.81-3.21,3.08-3.21h7.09L669.49,90.68z"/>
	</g>
	<g class="st0">
		<path class="st2" d="M32.35,154.13v22.81h-2.35v-20.73h-5.38v-2.09H32.35z"/>
		<path class="st2" d="M42.18,175.74c-1.38-0.93-2.46-2.28-3.23-4.02c-0.77-1.75-1.16-3.81-1.16-6.18s0.39-4.43,1.16-6.18
			c0.77-1.75,1.85-3.09,3.23-4.03c1.38-0.93,2.95-1.4,4.71-1.4c1.76,0,3.33,0.47,4.71,1.4c1.38,0.93,2.46,2.28,3.24,4.03
			s1.17,3.81,1.17,6.18s-0.39,4.43-1.17,6.18s-1.86,3.09-3.24,4.02c-1.38,0.93-2.95,1.4-4.71,1.4
			C45.13,177.14,43.56,176.67,42.18,175.74z M50.39,173.88c1.01-0.74,1.8-1.81,2.36-3.23c0.56-1.41,0.85-3.12,0.85-5.12
			s-0.28-3.7-0.85-5.12c-0.56-1.41-1.35-2.49-2.36-3.23c-1.01-0.74-2.18-1.11-3.5-1.11s-2.49,0.37-3.5,1.11
			c-1.01,0.74-1.8,1.81-2.36,3.23c-0.56,1.41-0.85,3.12-0.85,5.12s0.28,3.7,0.85,5.12c0.56,1.41,1.35,2.49,2.36,3.23
			c1.01,0.74,2.18,1.11,3.5,1.11S49.38,174.62,50.39,173.88z"/>
		<path class="st2" d="M63.75,175.74c-1.38-0.93-2.46-2.28-3.23-4.02c-0.77-1.75-1.16-3.81-1.16-6.18s0.39-4.43,1.16-6.18
			c0.77-1.75,1.85-3.09,3.23-4.03c1.38-0.93,2.95-1.4,4.71-1.4c1.76,0,3.33,0.47,4.71,1.4c1.38,0.93,2.46,2.28,3.24,4.03
			s1.17,3.81,1.17,6.18s-0.39,4.43-1.17,6.18s-1.86,3.09-3.24,4.02c-1.38,0.93-2.95,1.4-4.71,1.4
			C66.7,177.14,65.13,176.67,63.75,175.74z M71.97,173.88c1.01-0.74,1.8-1.81,2.36-3.23c0.56-1.41,0.85-3.12,0.85-5.12
			s-0.28-3.7-0.85-5.12c-0.56-1.41-1.35-2.49-2.36-3.23c-1.01-0.74-2.18-1.11-3.5-1.11s-2.49,0.37-3.5,1.11
			c-1.01,0.74-1.8,1.81-2.36,3.23c-0.56,1.41-0.85,3.12-0.85,5.12s0.28,3.7,0.85,5.12c0.56,1.41,1.35,2.49,2.36,3.23
			c1.01,0.74,2.18,1.11,3.5,1.11S70.96,174.62,71.97,173.88z"/>
		<path class="st2" d="M82.04,164.64c-0.95-1.14-1.42-2.63-1.42-4.48c0-1.85,0.47-3.34,1.42-4.48c0.94-1.14,2.19-1.71,3.73-1.71
			c1.52,0,2.76,0.56,3.72,1.69c0.96,1.13,1.43,2.63,1.43,4.5c0,1.87-0.48,3.37-1.43,4.5c-0.96,1.13-2.19,1.69-3.72,1.69
			C84.23,166.35,82.98,165.78,82.04,164.64z M88.33,163.63c0.64-0.84,0.96-1.99,0.96-3.47c0-1.48-0.32-2.63-0.96-3.47
			c-0.64-0.84-1.49-1.25-2.56-1.25c-1.09,0-1.94,0.42-2.57,1.27c-0.63,0.85-0.95,2-0.95,3.45c0,1.46,0.31,2.61,0.95,3.46
			c0.63,0.85,1.49,1.27,2.57,1.27C86.83,164.89,87.69,164.47,88.33,163.63z M99.59,154.13h1.92l-15.58,22.81h-1.92L99.59,154.13z
			 M96.03,175.4c-0.96-1.14-1.43-2.63-1.43-4.48s0.48-3.34,1.43-4.48c0.96-1.14,2.19-1.71,3.72-1.71c1.54,0,2.79,0.57,3.73,1.71
			c0.95,1.14,1.42,2.63,1.42,4.48s-0.47,3.34-1.42,4.48s-2.19,1.71-3.73,1.71C98.23,177.11,96.99,176.54,96.03,175.4z
			 M102.32,174.37c0.63-0.85,0.95-2,0.95-3.46c0-1.46-0.31-2.61-0.95-3.45c-0.63-0.85-1.49-1.27-2.57-1.27
			c-1.06,0-1.92,0.42-2.56,1.25c-0.64,0.84-0.96,1.99-0.96,3.47s0.32,2.63,0.96,3.47c0.64,0.84,1.49,1.25,2.56,1.25
			C100.84,175.64,101.69,175.22,102.32,174.37z"/>
		<path class="st2" d="M131.9,161.55c1.27,1.25,1.91,3.07,1.91,5.46v9.94h-2.31v-9.71c0-1.78-0.45-3.14-1.34-4.07
			c-0.89-0.93-2.16-1.4-3.81-1.4c-1.85,0-3.31,0.55-4.38,1.65c-1.08,1.1-1.61,2.61-1.61,4.55v9h-2.31v-24.18h2.31v10.04
			c0.63-1,1.5-1.77,2.61-2.31s2.38-0.81,3.81-0.81C128.92,159.67,130.63,160.3,131.9,161.55z"/>
		<path class="st2" d="M142.7,175.98c-1.33-0.75-2.37-1.79-3.13-3.11c-0.76-1.32-1.14-2.82-1.14-4.5c0-1.67,0.38-3.17,1.14-4.5
			s1.8-2.36,3.13-3.1c1.33-0.74,2.81-1.11,4.46-1.11c1.65,0,3.14,0.37,4.46,1.11c1.33,0.74,2.36,1.77,3.11,3.1
			c0.75,1.33,1.12,2.82,1.12,4.5c0,1.67-0.38,3.17-1.12,4.5c-0.75,1.33-1.79,2.36-3.11,3.11c-1.33,0.75-2.81,1.12-4.46,1.12
			C145.52,177.11,144.03,176.73,142.7,175.98z M150.44,174.22c0.97-0.55,1.72-1.34,2.26-2.36s0.81-2.18,0.81-3.49
			s-0.27-2.47-0.81-3.49c-0.54-1.02-1.3-1.81-2.26-2.36c-0.97-0.55-2.06-0.83-3.28-0.83s-2.31,0.28-3.28,0.83
			c-0.97,0.55-1.73,1.34-2.28,2.36c-0.55,1.02-0.83,2.18-0.83,3.49s0.28,2.47,0.83,3.49s1.31,1.81,2.28,2.36
			c0.97,0.55,2.06,0.83,3.28,0.83S149.48,174.78,150.44,174.22z"/>
		<path class="st2" d="M171.64,161.35c1.19,1.12,1.79,2.78,1.79,4.97v10.62h-2.22v-2.67c-0.52,0.89-1.29,1.59-2.3,2.09
			c-1.01,0.5-2.21,0.75-3.6,0.75c-1.91,0-3.43-0.46-4.56-1.37c-1.13-0.91-1.7-2.12-1.7-3.62c0-1.46,0.53-2.63,1.58-3.52
			s2.73-1.34,5.04-1.34h5.44v-1.04c0-1.48-0.41-2.6-1.24-3.37c-0.83-0.77-2.03-1.16-3.62-1.16c-1.09,0-2.13,0.18-3.13,0.54
			c-1,0.36-1.86,0.85-2.57,1.48l-1.04-1.73c0.87-0.74,1.91-1.31,3.13-1.71c1.22-0.4,2.5-0.6,3.85-0.6
			C168.73,159.67,170.45,160.23,171.64,161.35z M169.03,174.39c0.93-0.6,1.63-1.46,2.09-2.59v-2.8h-5.38c-2.93,0-4.4,1.02-4.4,3.06
			c0,1,0.38,1.79,1.14,2.36c0.76,0.58,1.82,0.86,3.19,0.86C166.98,175.28,168.1,174.98,169.03,174.39z"/>
		<path class="st2" d="M207.82,154.13v22.81h-2.38v-10.53h-14.27v10.53h-2.41v-22.81h2.41v10.17h14.27v-10.17H207.82z"/>
		<path class="st2" d="M214.73,155.57c-0.33-0.33-0.49-0.72-0.49-1.17c0-0.43,0.16-0.81,0.49-1.14c0.33-0.33,0.73-0.49,1.21-0.49
			s0.88,0.16,1.21,0.47c0.33,0.32,0.49,0.69,0.49,1.12c0,0.48-0.16,0.88-0.49,1.21s-0.73,0.49-1.21,0.49
			S215.05,155.89,214.73,155.57z M214.76,159.8h2.31v17.14h-2.31V159.8z"/>
		<path class="st2" d="M236.72,160.76c1.3,0.73,2.32,1.75,3.06,3.08c0.74,1.33,1.11,2.84,1.11,4.53s-0.37,3.21-1.11,4.53
			c-0.74,1.33-1.76,2.36-3.06,3.1c-1.3,0.74-2.76,1.11-4.37,1.11c-1.43,0-2.72-0.3-3.86-0.91c-1.14-0.61-2.06-1.49-2.75-2.64v3.39
			h-2.22v-24.18h2.31v10.3c0.72-1.11,1.63-1.95,2.75-2.53c1.12-0.58,2.37-0.86,3.76-0.86C233.96,159.67,235.42,160.04,236.72,160.76
			z M235.45,174.22c0.98-0.55,1.74-1.34,2.3-2.36c0.55-1.02,0.83-2.18,0.83-3.49s-0.28-2.47-0.83-3.49
			c-0.55-1.02-1.32-1.81-2.3-2.36c-0.98-0.55-2.06-0.83-3.26-0.83c-1.22,0-2.31,0.28-3.28,0.83c-0.97,0.55-1.73,1.34-2.28,2.36
			c-0.55,1.02-0.83,2.18-0.83,3.49s0.28,2.47,0.83,3.49s1.31,1.81,2.28,2.36c0.97,0.55,2.06,0.83,3.28,0.83
			C233.39,175.05,234.48,174.78,235.45,174.22z"/>
		<path class="st2" d="M245.59,155.57c-0.33-0.33-0.49-0.72-0.49-1.17c0-0.43,0.16-0.81,0.49-1.14c0.33-0.33,0.73-0.49,1.21-0.49
			s0.88,0.16,1.21,0.47c0.33,0.32,0.49,0.69,0.49,1.12c0,0.48-0.16,0.88-0.49,1.21s-0.73,0.49-1.21,0.49
			S245.91,155.89,245.59,155.57z M245.62,159.8h2.31v17.14h-2.31V159.8z"/>
		<path class="st2" d="M254.99,176.5c-1.27-0.4-2.26-0.91-2.98-1.51l1.04-1.83c0.72,0.57,1.62,1.03,2.7,1.38
			c1.09,0.36,2.22,0.54,3.39,0.54c1.56,0,2.72-0.25,3.47-0.73c0.75-0.49,1.12-1.18,1.12-2.07c0-0.63-0.21-1.12-0.62-1.48
			c-0.41-0.36-0.93-0.63-1.56-0.81c-0.63-0.18-1.47-0.36-2.51-0.54c-1.39-0.26-2.51-0.53-3.36-0.8c-0.85-0.27-1.57-0.73-2.17-1.39
			c-0.6-0.65-0.9-1.55-0.9-2.7c0-1.43,0.6-2.61,1.79-3.52c1.2-0.91,2.86-1.37,4.99-1.37c1.11,0,2.22,0.15,3.32,0.44
			c1.11,0.29,2.02,0.68,2.74,1.16l-1.01,1.86c-1.41-0.98-3.1-1.47-5.05-1.47c-1.48,0-2.59,0.26-3.34,0.78
			c-0.75,0.52-1.12,1.21-1.12,2.05c0,0.65,0.21,1.17,0.64,1.56c0.42,0.39,0.95,0.68,1.58,0.86s1.5,0.38,2.61,0.57
			c1.37,0.26,2.47,0.52,3.29,0.78c0.83,0.26,1.53,0.71,2.12,1.34c0.59,0.63,0.88,1.5,0.88,2.61c0,1.5-0.62,2.69-1.87,3.57
			s-2.98,1.32-5.2,1.32C257.59,177.11,256.26,176.91,254.99,176.5z"/>
		<path class="st2" d="M272.88,176c-1.34-0.74-2.38-1.78-3.15-3.11s-1.14-2.84-1.14-4.51c0-1.67,0.38-3.17,1.14-4.5
			s1.81-2.36,3.15-3.1c1.34-0.74,2.85-1.11,4.55-1.11c1.48,0,2.8,0.29,3.96,0.86c1.16,0.58,2.08,1.42,2.75,2.53l-1.73,1.17
			c-0.57-0.85-1.28-1.48-2.15-1.91c-0.87-0.42-1.81-0.64-2.83-0.64c-1.24,0-2.35,0.28-3.34,0.83c-0.99,0.55-1.76,1.34-2.31,2.36
			c-0.55,1.02-0.83,2.18-0.83,3.49c0,1.33,0.28,2.49,0.83,3.5c0.55,1.01,1.33,1.79,2.31,2.35c0.99,0.55,2.1,0.83,3.34,0.83
			c1.02,0,1.97-0.21,2.83-0.62c0.87-0.41,1.59-1.04,2.15-1.89l1.73,1.17c-0.67,1.11-1.6,1.95-2.77,2.53
			c-1.17,0.58-2.49,0.86-3.94,0.86C275.73,177.11,274.22,176.74,272.88,176z"/>
		<path class="st2" d="M304.12,159.8v17.14h-2.22v-3.13c-0.61,1.04-1.45,1.85-2.51,2.43c-1.06,0.58-2.28,0.86-3.65,0.86
			c-2.24,0-4-0.62-5.3-1.87c-1.29-1.25-1.94-3.08-1.94-5.49v-9.94h2.31v9.71c0,1.8,0.45,3.17,1.34,4.11c0.89,0.93,2.16,1.4,3.81,1.4
			c1.8,0,3.23-0.55,4.27-1.65s1.56-2.62,1.56-4.58v-9H304.12z"/>
		<path class="st2" d="M311.21,176.5c-1.27-0.4-2.26-0.91-2.98-1.51l1.04-1.83c0.72,0.57,1.62,1.03,2.7,1.38
			c1.09,0.36,2.22,0.54,3.39,0.54c1.56,0,2.72-0.25,3.47-0.73c0.75-0.49,1.12-1.18,1.12-2.07c0-0.63-0.21-1.12-0.62-1.48
			c-0.41-0.36-0.93-0.63-1.56-0.81c-0.63-0.18-1.47-0.36-2.51-0.54c-1.39-0.26-2.51-0.53-3.36-0.8c-0.85-0.27-1.57-0.73-2.17-1.39
			c-0.6-0.65-0.9-1.55-0.9-2.7c0-1.43,0.6-2.61,1.79-3.52c1.2-0.91,2.86-1.37,4.99-1.37c1.11,0,2.22,0.15,3.32,0.44
			c1.11,0.29,2.02,0.68,2.74,1.16l-1.01,1.86c-1.41-0.98-3.1-1.47-5.05-1.47c-1.48,0-2.59,0.26-3.34,0.78
			c-0.75,0.52-1.12,1.21-1.12,2.05c0,0.65,0.21,1.17,0.64,1.56c0.42,0.39,0.95,0.68,1.58,0.86s1.5,0.38,2.61,0.57
			c1.37,0.26,2.47,0.52,3.29,0.78c0.83,0.26,1.53,0.71,2.12,1.34c0.59,0.63,0.88,1.5,0.88,2.61c0,1.5-0.62,2.69-1.87,3.57
			s-2.98,1.32-5.2,1.32C313.81,177.11,312.48,176.91,311.21,176.5z"/>
		<path class="st2" d="M344.11,175.9c-0.43,0.39-0.97,0.69-1.61,0.9s-1.31,0.31-2,0.31c-1.61,0-2.85-0.43-3.72-1.3
			s-1.3-2.1-1.3-3.68v-10.36h-3.06v-1.96h3.06v-3.75h2.31v3.75H343v1.96h-5.21v10.23c0,1.02,0.25,1.8,0.77,2.33
			c0.51,0.53,1.24,0.8,2.2,0.8c0.48,0,0.94-0.08,1.38-0.23c0.45-0.15,0.83-0.37,1.16-0.65L344.11,175.9z"/>
		<path class="st2" d="M363.76,159.8v17.14h-2.22v-3.13c-0.61,1.04-1.45,1.85-2.51,2.43c-1.06,0.58-2.28,0.86-3.65,0.86
			c-2.24,0-4-0.62-5.3-1.87c-1.29-1.25-1.94-3.08-1.94-5.49v-9.94h2.31v9.71c0,1.8,0.45,3.17,1.34,4.11c0.89,0.93,2.16,1.4,3.81,1.4
			c1.8,0,3.23-0.55,4.27-1.65s1.56-2.62,1.56-4.58v-9H363.76z M354.97,182.75c-0.27-0.26-0.41-0.6-0.41-1.01
			c0-0.41,0.14-0.75,0.41-1.01s0.6-0.39,0.99-0.39s0.72,0.13,0.99,0.39s0.41,0.6,0.41,1.01c0,0.41-0.13,0.75-0.41,1.01
			s-0.6,0.39-0.99,0.39S355.25,183.01,354.97,182.75z M362.16,159.77h0.49c0.72,0,1.25-0.2,1.61-0.6c0.36-0.4,0.54-0.93,0.54-1.58
			c0-0.78-0.22-1.48-0.65-2.09l1.53-0.59c0.56,0.78,0.85,1.7,0.85,2.74c0,1.2-0.34,2.15-1.01,2.85s-1.63,1.06-2.87,1.06h-0.49
			V159.77z"/>
		<path class="st2" d="M392.84,161.55c1.27,1.25,1.91,3.07,1.91,5.46v9.94h-2.31v-9.71c0-1.78-0.45-3.14-1.34-4.07
			c-0.89-0.93-2.16-1.4-3.81-1.4c-1.85,0-3.31,0.55-4.38,1.65c-1.08,1.1-1.61,2.61-1.61,4.55v9h-2.31V159.8h2.22v3.16
			c0.63-1.04,1.5-1.85,2.62-2.43c1.12-0.58,2.42-0.86,3.89-0.86C389.86,159.67,391.57,160.3,392.84,161.55z"/>
		<path class="st2" d="M414.91,161.55c1.27,1.25,1.91,3.07,1.91,5.46v9.94h-2.31v-9.71c0-1.78-0.45-3.14-1.34-4.07
			c-0.89-0.93-2.16-1.4-3.81-1.4c-1.85,0-3.31,0.55-4.38,1.65c-1.08,1.1-1.61,2.61-1.61,4.55v9h-2.31v-24.18h2.31v10.04
			c0.63-1,1.5-1.77,2.61-2.31c1.11-0.54,2.38-0.81,3.81-0.81C411.92,159.67,413.63,160.3,414.91,161.55z"/>
		<path class="st2" d="M423.07,155.57c-0.33-0.33-0.49-0.72-0.49-1.17c0-0.43,0.16-0.81,0.49-1.14c0.33-0.33,0.73-0.49,1.21-0.49
			c0.48,0,0.88,0.16,1.21,0.47c0.33,0.32,0.49,0.69,0.49,1.12c0,0.48-0.16,0.88-0.49,1.21s-0.73,0.49-1.21,0.49
			C423.8,156.05,423.4,155.89,423.07,155.57z M423.1,159.8h2.31v17.14h-2.31V159.8z"/>
		<path class="st2" d="M446.79,169.09h-14.34c0.13,1.78,0.81,3.22,2.05,4.32c1.24,1.1,2.8,1.65,4.69,1.65
			c1.06,0,2.04-0.19,2.93-0.57c0.89-0.38,1.66-0.94,2.31-1.68l1.3,1.5c-0.76,0.91-1.71,1.61-2.85,2.09s-2.39,0.72-3.76,0.72
			c-1.76,0-3.32-0.38-4.68-1.12c-1.36-0.75-2.42-1.79-3.18-3.11c-0.76-1.32-1.14-2.82-1.14-4.5c0-1.67,0.36-3.17,1.09-4.5
			c0.73-1.33,1.73-2.36,3-3.1c1.27-0.74,2.7-1.11,4.29-1.11s3.01,0.37,4.27,1.11c1.26,0.74,2.25,1.77,2.96,3.08
			c0.72,1.31,1.08,2.82,1.08,4.51L446.79,169.09z M434.36,163.24c-1.12,1.05-1.76,2.43-1.91,4.12h12.15
			c-0.15-1.7-0.79-3.07-1.91-4.12s-2.51-1.58-4.19-1.58C436.87,161.66,435.48,162.19,434.36,163.24z M441.74,157.13l-3.23-2.71
			l-3.23,2.71h-2.15l4.2-4.04h2.35l4.2,4.04H441.74z"/>
		<path class="st2" d="M465.42,161.55c1.27,1.25,1.91,3.07,1.91,5.46v9.94h-2.31v-9.71c0-1.78-0.45-3.14-1.34-4.07
			c-0.89-0.93-2.16-1.4-3.81-1.4c-1.85,0-3.31,0.55-4.38,1.65c-1.08,1.1-1.61,2.61-1.61,4.55v9h-2.31V159.8h2.22v3.16
			c0.63-1.04,1.5-1.85,2.62-2.43c1.12-0.58,2.42-0.86,3.89-0.86C462.44,159.67,464.15,160.3,465.42,161.55z"/>
	</g>
	<path class="st3" d="M491.68,183.14h183.55c3.18,0,5.75-2.57,5.75-5.75v-20.91c0-3.18-2.57-5.75-5.75-5.75H491.68
		c-3.18,0-5.75,2.57-5.75,5.75v20.91C485.93,180.56,488.51,183.14,491.68,183.14z"/>
	<g class="st0">
		<path class="st4" d="M501.04,158.25c2.57,0,4.54,0.79,5.91,2.37c1.36,1.58,2.05,3.87,2.05,6.86c0,3.01-0.68,5.31-2.05,6.9
			c-1.36,1.59-3.33,2.38-5.91,2.38c-2.59,0-4.57-0.79-5.93-2.38c-1.36-1.59-2.05-3.89-2.05-6.9c0-2.99,0.68-5.28,2.05-6.86
			C496.48,159.04,498.45,158.25,501.04,158.25z M501.04,161.41c-1.29,0-2.23,0.48-2.84,1.43s-0.91,2.5-0.91,4.64
			c0,2.16,0.3,3.71,0.91,4.68s1.56,1.45,2.84,1.45c1.27,0,2.21-0.48,2.82-1.45s0.91-2.52,0.91-4.68c0-2.14-0.3-3.68-0.91-4.64
			S502.31,161.41,501.04,161.41z"/>
		<path class="st4" d="M516.01,158.3c1.56,0,2.79,0.49,3.68,1.46c0.89,0.97,1.33,2.31,1.33,4.02c0,1.72-0.44,3.07-1.33,4.05
			c-0.89,0.98-2.11,1.47-3.68,1.47c-1.55,0-2.76-0.49-3.65-1.47c-0.89-0.98-1.33-2.33-1.33-4.05c0-1.7,0.44-3.04,1.33-4.02
			C513.24,158.79,514.46,158.3,516.01,158.3z M516.01,160.55c-0.76,0-1.36,0.29-1.77,0.86c-0.42,0.57-0.63,1.37-0.63,2.37
			c0,1.04,0.21,1.85,0.63,2.41c0.42,0.57,1.01,0.85,1.77,0.85c0.78,0,1.38-0.28,1.8-0.85c0.42-0.56,0.62-1.37,0.62-2.41
			c0-1.01-0.21-1.8-0.62-2.37C517.39,160.83,516.79,160.55,516.01,160.55z M527.9,158.38h3.75l-13.14,18.25h-3.81L527.9,158.38z
			 M530.5,165.71c1.56,0,2.79,0.49,3.68,1.47c0.89,0.98,1.33,2.33,1.33,4.03c0,1.72-0.44,3.07-1.33,4.04s-2.11,1.46-3.68,1.46
			c-1.55,0-2.76-0.49-3.65-1.46c-0.89-0.97-1.33-2.32-1.33-4.04c0-1.7,0.44-3.05,1.33-4.03C527.74,166.2,528.96,165.71,530.5,165.71
			z M530.5,167.95c-0.76,0-1.36,0.29-1.77,0.86c-0.42,0.57-0.63,1.37-0.63,2.4s0.21,1.83,0.63,2.4s1.01,0.86,1.77,0.86
			c0.78,0,1.38-0.29,1.8-0.86c0.42-0.57,0.62-1.37,0.62-2.4s-0.21-1.83-0.62-2.4C531.89,168.24,531.29,167.95,530.5,167.95z"/>
		<path class="st4" d="M553.11,158.25c0.66,0,1.32,0.07,1.98,0.21c0.66,0.14,1.3,0.34,1.93,0.6s1.22,0.58,1.77,0.95
			c0.56,0.37,1.06,0.79,1.51,1.26l-2.4,2.92c-0.63-0.73-1.36-1.31-2.2-1.73c-0.84-0.43-1.69-0.64-2.54-0.64
			c-0.78,0-1.51,0.14-2.19,0.43s-1.26,0.68-1.76,1.19s-0.89,1.09-1.17,1.77c-0.29,0.68-0.43,1.42-0.43,2.22
			c0,0.8,0.14,1.54,0.43,2.23c0.29,0.69,0.68,1.28,1.17,1.79c0.5,0.5,1.08,0.9,1.76,1.19s1.41,0.43,2.19,0.43
			c0.83,0,1.67-0.19,2.5-0.57c0.83-0.38,1.58-0.9,2.24-1.56l2.42,2.63c-0.97,0.99-2.11,1.78-3.42,2.37
			c-1.3,0.59-2.62,0.89-3.96,0.89c-1.36,0-2.62-0.24-3.79-0.72c-1.17-0.48-2.19-1.13-3.04-1.97s-1.52-1.82-2.01-2.96
			c-0.49-1.14-0.73-2.37-0.73-3.69c0-1.32,0.25-2.54,0.74-3.66s1.18-2.09,2.05-2.92s1.89-1.47,3.08-1.94
			C550.43,158.49,551.72,158.25,553.11,158.25z"/>
		<path class="st4" d="M566.2,173.09l-1.43,3.55h-4.25l7.93-18.25h4.25l7.8,18.25h-4.41l-1.43-3.55H566.2z M570.45,162.68
			l-2.89,7.09h5.76L570.45,162.68z"/>
		<path class="st4" d="M586.51,161.8v4.48h8.24v3.44h-8.24v6.91h-4.12v-18.25h13.11l-0.03,3.42H586.51z"/>
		<path class="st4" d="M602.02,161.8v4.48h8.24v3.44h-8.24v6.91h-4.12v-18.25h13.11l-0.03,3.42H602.02z"/>
		<path class="st4" d="M617.53,161.8v3.96h8.81v3.42h-8.81v4.04h10.06v3.42h-14.18v-18.25h13.9v3.42H617.53z"/>
		<path class="st4" d="M630.83,176.63v-18.25h4.12v18.25H630.83z"/>
		<path class="st4" d="M651.77,176.63l-8.84-11.71v11.71h-3.94v-18.25h3.75l8.87,11.73v-11.73h3.91v18.25H651.77z"/>
		<path class="st4" d="M663.65,161.8v3.96h8.81v3.42h-8.81v4.04h10.06v3.42h-14.18v-18.25h13.9v3.42H663.65z"/>
	</g>
</g>
<g id="_x36_.5_Oz" class="st5">
</g>
<g id="_x31_0_Oz" class="st5">
</g>
<g id="_x31_2_Oz" class="st5">
</g>
<g id="_x31_6_Oz" class="st5">
</g>
<g id="_x32_2_Oz" class="st5">
</g>
</svg>
